# xmcd
#
# Track frame offsets:
#	150
#	18437
#	26802
#	36757
#	44665
#	58317
#	70312
#	85915
#	95415
#	111655
#	124872
#	141457
#	153805
#	166880
#	180270
#	192857
#	207067
#	222567
#	240010
#	252117
#
# Disc length: 3499
#
# Revision: 3
# Processed by: cddbd v1.5.1PL0 Copyright (c) Steve Scherf et al.
# Submitted via: MusicWizard 7.0.2
# Normalized: r2:TSWAP
#
DISCID=1c0da914
DTITLE=Various Artist - Mega Country (7/10)
DYEAR=1997
DGENRE=Country
TTITLE0=Crystal Gayle - Half The Way
TTITLE1=Johnny Cash - I Guess Things Happen That Way
TTITLE2=Box Car Willie - King Of The Road
TTITLE3=Roger Miller - Dang Me
TTITLE4=The Kendalls - Heartaches By The Number
TTITLE5=Ernest Tubb and Willie Nelson - Waltz Across Texas
TTITLE6=Becky Hobbs - The Boots I Came To Town In
TTITLE7=Live Performance - Kiss An Angel Good Morning
TTITLE8=Tammy Wynette and David Houston - My Elusive Dreams
TTITLE9=T. Graham Brown - Brilliant Conversationalist
TTITLE10=Charlie Rich - Big Boss Man
TTITLE11=Mickey Gilley - Make The World Go Away
TTITLE12=Slim Whitman - Red Sails In The Sunset
TTITLE13=Patti Page - Allegheny Moon
TTITLE14=Johnny Lee - Bet Your Heart On Me
TTITLE15=Lee Greenwood - I.O.U.
TTITLE16=The Bellamy Brothers - Kids Of The Baby Boom
TTITLE17=Deborah Allen - Baby I Lied
TTITLE18=Jean Shepard and Ferlin Husky - Dear John Letter
TTITLE19=Leroy Van Dyke - Walk On By
EXTD=
EXTT0=
EXTT1=
EXTT2=
EXTT3=
EXTT4=
EXTT5=
EXTT6=
EXTT7=
EXTT8=
EXTT9=
EXTT10=
EXTT11=
EXTT12=
EXTT13=
EXTT14=
EXTT15=
EXTT16=
EXTT17=
EXTT18=
EXTT19=
PLAYORDER=
